<svg xmlns="http://www.w3.org/2000/svg" viewBox="0 0 754 446" width="754" height="446" font-family="JetBrains Mono, ui-monospace, Menlo, monospace">
<rect x="0" y="0" width="754" height="446" fill="#12141a" rx="10"/>
<rect x="368" y="34" width="74" height="370" fill="rgba(45, 212, 191, 0.14)"/>
<rect x="442" y="34" width="74" height="370" fill="rgba(249, 115, 22, 0.14)"/>
<rect x="590" y="34" width="74" height="370" fill="rgba(45, 212, 191, 0.14)"/>
<text x="183.0" y="26" fill="#9a9c9f" font-size="11" text-anchor="middle">1</text>
<text x="257.0" y="26" fill="#9a9c9f" font-size="11" text-anchor="middle">2</text>
<text x="331.0" y="26" fill="#9a9c9f" font-size="11" text-anchor="middle">3</text>
<text x="405.0" y="26" fill="#9a9c9f" font-size="11" text-anchor="middle">4</text>
<text x="479.0" y="26" fill="#9a9c9f" font-size="11" text-anchor="middle">5</text>
<text x="553.0" y="26" fill="#9a9c9f" font-size="11" text-anchor="middle">6</text>
<text x="627.0" y="26" fill="#9a9c9f" font-size="11" text-anchor="middle">7</text>
<text x="701.0" y="26" fill="#9a9c9f" font-size="11" text-anchor="middle">8</text>
<text x="16" y="26" fill="#9a9c9f" font-size="11">cycle</text>
<text x="16" y="64.0" fill="#eae8e2" font-size="12">clk</text>
<line x1="16" y1="80" x2="738" y2="80" stroke="#262a33" stroke-width="1"/>
<text x="16" y="104.0" fill="#eae8e2" font-size="12">IF</text>
<line x1="16" y1="120" x2="738" y2="120" stroke="#262a33" stroke-width="1"/>
<text x="16" y="144.0" fill="#eae8e2" font-size="12">ID</text>
<line x1="16" y1="160" x2="738" y2="160" stroke="#262a33" stroke-width="1"/>
<text x="16" y="184.0" fill="#eae8e2" font-size="12">EX</text>
<line x1="16" y1="200" x2="738" y2="200" stroke="#262a33" stroke-width="1"/>
<text x="16" y="224.0" fill="#eae8e2" font-size="12">ex_mem_read</text>
<line x1="16" y1="240" x2="738" y2="240" stroke="#262a33" stroke-width="1"/>
<text x="16" y="264.0" fill="#eae8e2" font-size="12">stall</text>
<line x1="16" y1="280" x2="738" y2="280" stroke="#262a33" stroke-width="1"/>
<text x="16" y="304.0" fill="#eae8e2" font-size="12">id_flush</text>
<line x1="16" y1="320" x2="738" y2="320" stroke="#262a33" stroke-width="1"/>
<text x="16" y="344.0" fill="#eae8e2" font-size="12">forward_a</text>
<line x1="16" y1="360" x2="738" y2="360" stroke="#262a33" stroke-width="1"/>
<text x="16" y="384.0" fill="#eae8e2" font-size="12">forward_b</text>
<line x1="16" y1="400" x2="738" y2="400" stroke="#262a33" stroke-width="1"/>
<line x1="146" y1="34" x2="146" y2="404" stroke="#262a33" stroke-width="0.6"/>
<line x1="220" y1="34" x2="220" y2="404" stroke="#262a33" stroke-width="0.6"/>
<line x1="294" y1="34" x2="294" y2="404" stroke="#262a33" stroke-width="0.6"/>
<line x1="368" y1="34" x2="368" y2="404" stroke="#262a33" stroke-width="0.6"/>
<line x1="442" y1="34" x2="442" y2="404" stroke="#262a33" stroke-width="0.6"/>
<line x1="516" y1="34" x2="516" y2="404" stroke="#262a33" stroke-width="0.6"/>
<line x1="590" y1="34" x2="590" y2="404" stroke="#262a33" stroke-width="0.6"/>
<line x1="664" y1="34" x2="664" y2="404" stroke="#262a33" stroke-width="0.6"/>
<line x1="738" y1="34" x2="738" y2="404" stroke="#262a33" stroke-width="0.6"/>
<path d="M146 50.4 H183.0 V72.0 H220 V50.4 H257.0 V72.0 H294 V50.4 H331.0 V72.0 H368 V50.4 H405.0 V72.0 H442 V50.4 H479.0 V72.0 H516 V50.4 H553.0 V72.0 H590 V50.4 H627.0 V72.0 H664 V50.4 H701.0 V72.0 H738 V50.4" fill="none" stroke="#2dd4bf" stroke-width="1.6"/>
<path d="M438 62.4 L442 51.4 L446 62.4" fill="none" stroke="#f97316" stroke-width="1.4"/>
<line x1="146" y1="87.0" x2="146" y2="113.0" stroke="#9a9c9f" stroke-width="1.1"/>
<line x1="220" y1="87.0" x2="220" y2="113.0" stroke="#9a9c9f" stroke-width="1.1"/>
<line x1="146" y1="87.0" x2="220" y2="87.0" stroke="#9a9c9f" stroke-width="1.1"/>
<line x1="146" y1="113.0" x2="220" y2="113.0" stroke="#9a9c9f" stroke-width="1.1"/>
<text x="183.0" y="104.0" fill="#eae8e2" font-size="10.5" text-anchor="middle">addi x1</text>
<line x1="220" y1="87.0" x2="220" y2="113.0" stroke="#9a9c9f" stroke-width="1.1"/>
<line x1="294" y1="87.0" x2="294" y2="113.0" stroke="#9a9c9f" stroke-width="1.1"/>
<line x1="220" y1="87.0" x2="294" y2="87.0" stroke="#9a9c9f" stroke-width="1.1"/>
<line x1="220" y1="113.0" x2="294" y2="113.0" stroke="#9a9c9f" stroke-width="1.1"/>
<text x="257.0" y="104.0" fill="#eae8e2" font-size="10.5" text-anchor="middle">sd</text>
<line x1="294" y1="87.0" x2="294" y2="113.0" stroke="#9a9c9f" stroke-width="1.1"/>
<line x1="368" y1="87.0" x2="368" y2="113.0" stroke="#9a9c9f" stroke-width="1.1"/>
<line x1="294" y1="87.0" x2="368" y2="87.0" stroke="#9a9c9f" stroke-width="1.1"/>
<line x1="294" y1="113.0" x2="368" y2="113.0" stroke="#9a9c9f" stroke-width="1.1"/>
<text x="331.0" y="104.0" fill="#eae8e2" font-size="10.5" text-anchor="middle">ld</text>
<line x1="368" y1="87.0" x2="368" y2="113.0" stroke="#9a9c9f" stroke-width="1.1"/>
<line x1="442" y1="87.0" x2="442" y2="113.0" stroke="#9a9c9f" stroke-width="1.1"/>
<line x1="368" y1="87.0" x2="442" y2="87.0" stroke="#9a9c9f" stroke-width="1.1"/>
<line x1="368" y1="113.0" x2="442" y2="113.0" stroke="#9a9c9f" stroke-width="1.1"/>
<text x="405.0" y="104.0" fill="#eae8e2" font-size="10.5" text-anchor="middle">add</text>
<line x1="442" y1="87.0" x2="442" y2="113.0" stroke="#9a9c9f" stroke-width="1.1"/>
<line x1="516" y1="87.0" x2="516" y2="113.0" stroke="#9a9c9f" stroke-width="1.1"/>
<line x1="442" y1="87.0" x2="516" y2="87.0" stroke="#9a9c9f" stroke-width="1.1"/>
<line x1="442" y1="113.0" x2="516" y2="113.0" stroke="#9a9c9f" stroke-width="1.1"/>
<text x="479.0" y="104.0" fill="#eae8e2" font-size="10.5" text-anchor="middle">addi x4</text>
<line x1="516" y1="87.0" x2="516" y2="113.0" stroke="#9a9c9f" stroke-width="1.1"/>
<line x1="590" y1="87.0" x2="590" y2="113.0" stroke="#9a9c9f" stroke-width="1.1"/>
<line x1="516" y1="87.0" x2="590" y2="87.0" stroke="#9a9c9f" stroke-width="1.1"/>
<line x1="516" y1="113.0" x2="590" y2="113.0" stroke="#9a9c9f" stroke-width="1.1"/>
<text x="553.0" y="104.0" fill="#eae8e2" font-size="10.5" text-anchor="middle">addi x4</text>
<line x1="590" y1="87.0" x2="590" y2="113.0" stroke="#9a9c9f" stroke-width="1.1"/>
<line x1="664" y1="87.0" x2="664" y2="113.0" stroke="#9a9c9f" stroke-width="1.1"/>
<line x1="590" y1="87.0" x2="664" y2="87.0" stroke="#9a9c9f" stroke-width="1.1"/>
<line x1="590" y1="113.0" x2="664" y2="113.0" stroke="#9a9c9f" stroke-width="1.1"/>
<text x="627.0" y="104.0" fill="#9a9c9f" font-size="10.5" text-anchor="middle">-</text>
<line x1="664" y1="87.0" x2="664" y2="113.0" stroke="#9a9c9f" stroke-width="1.1"/>
<line x1="738" y1="87.0" x2="738" y2="113.0" stroke="#9a9c9f" stroke-width="1.1"/>
<line x1="664" y1="87.0" x2="738" y2="87.0" stroke="#9a9c9f" stroke-width="1.1"/>
<line x1="664" y1="113.0" x2="738" y2="113.0" stroke="#9a9c9f" stroke-width="1.1"/>
<text x="701.0" y="104.0" fill="#9a9c9f" font-size="10.5" text-anchor="middle">-</text>
<line x1="146" y1="127.0" x2="146" y2="153.0" stroke="#9a9c9f" stroke-width="1.1"/>
<line x1="220" y1="127.0" x2="220" y2="153.0" stroke="#9a9c9f" stroke-width="1.1"/>
<line x1="146" y1="127.0" x2="220" y2="127.0" stroke="#9a9c9f" stroke-width="1.1"/>
<line x1="146" y1="153.0" x2="220" y2="153.0" stroke="#9a9c9f" stroke-width="1.1"/>
<text x="183.0" y="144.0" fill="#9a9c9f" font-size="10.5" text-anchor="middle">-</text>
<line x1="220" y1="127.0" x2="220" y2="153.0" stroke="#9a9c9f" stroke-width="1.1"/>
<line x1="294" y1="127.0" x2="294" y2="153.0" stroke="#9a9c9f" stroke-width="1.1"/>
<line x1="220" y1="127.0" x2="294" y2="127.0" stroke="#9a9c9f" stroke-width="1.1"/>
<line x1="220" y1="153.0" x2="294" y2="153.0" stroke="#9a9c9f" stroke-width="1.1"/>
<text x="257.0" y="144.0" fill="#eae8e2" font-size="10.5" text-anchor="middle">addi x1</text>
<line x1="294" y1="127.0" x2="294" y2="153.0" stroke="#9a9c9f" stroke-width="1.1"/>
<line x1="368" y1="127.0" x2="368" y2="153.0" stroke="#9a9c9f" stroke-width="1.1"/>
<line x1="294" y1="127.0" x2="368" y2="127.0" stroke="#9a9c9f" stroke-width="1.1"/>
<line x1="294" y1="153.0" x2="368" y2="153.0" stroke="#9a9c9f" stroke-width="1.1"/>
<text x="331.0" y="144.0" fill="#eae8e2" font-size="10.5" text-anchor="middle">sd</text>
<line x1="368" y1="127.0" x2="368" y2="153.0" stroke="#9a9c9f" stroke-width="1.1"/>
<line x1="442" y1="127.0" x2="442" y2="153.0" stroke="#9a9c9f" stroke-width="1.1"/>
<line x1="368" y1="127.0" x2="442" y2="127.0" stroke="#9a9c9f" stroke-width="1.1"/>
<line x1="368" y1="153.0" x2="442" y2="153.0" stroke="#9a9c9f" stroke-width="1.1"/>
<text x="405.0" y="144.0" fill="#eae8e2" font-size="10.5" text-anchor="middle">ld</text>
<line x1="442" y1="127.0" x2="442" y2="153.0" stroke="#9a9c9f" stroke-width="1.1"/>
<line x1="516" y1="127.0" x2="516" y2="153.0" stroke="#9a9c9f" stroke-width="1.1"/>
<line x1="442" y1="127.0" x2="516" y2="127.0" stroke="#9a9c9f" stroke-width="1.1"/>
<line x1="442" y1="153.0" x2="516" y2="153.0" stroke="#9a9c9f" stroke-width="1.1"/>
<text x="479.0" y="144.0" fill="#eae8e2" font-size="10.5" text-anchor="middle">add</text>
<line x1="516" y1="127.0" x2="516" y2="153.0" stroke="#9a9c9f" stroke-width="1.1"/>
<line x1="590" y1="127.0" x2="590" y2="153.0" stroke="#9a9c9f" stroke-width="1.1"/>
<line x1="516" y1="127.0" x2="590" y2="127.0" stroke="#9a9c9f" stroke-width="1.1"/>
<line x1="516" y1="153.0" x2="590" y2="153.0" stroke="#9a9c9f" stroke-width="1.1"/>
<text x="553.0" y="144.0" fill="#eae8e2" font-size="10.5" text-anchor="middle">add</text>
<line x1="590" y1="127.0" x2="590" y2="153.0" stroke="#9a9c9f" stroke-width="1.1"/>
<line x1="664" y1="127.0" x2="664" y2="153.0" stroke="#9a9c9f" stroke-width="1.1"/>
<line x1="590" y1="127.0" x2="664" y2="127.0" stroke="#9a9c9f" stroke-width="1.1"/>
<line x1="590" y1="153.0" x2="664" y2="153.0" stroke="#9a9c9f" stroke-width="1.1"/>
<text x="627.0" y="144.0" fill="#eae8e2" font-size="10.5" text-anchor="middle">addi x4</text>
<line x1="664" y1="127.0" x2="664" y2="153.0" stroke="#9a9c9f" stroke-width="1.1"/>
<line x1="738" y1="127.0" x2="738" y2="153.0" stroke="#9a9c9f" stroke-width="1.1"/>
<line x1="664" y1="127.0" x2="738" y2="127.0" stroke="#9a9c9f" stroke-width="1.1"/>
<line x1="664" y1="153.0" x2="738" y2="153.0" stroke="#9a9c9f" stroke-width="1.1"/>
<text x="701.0" y="144.0" fill="#9a9c9f" font-size="10.5" text-anchor="middle">-</text>
<line x1="146" y1="167.0" x2="146" y2="193.0" stroke="#9a9c9f" stroke-width="1.1"/>
<line x1="220" y1="167.0" x2="220" y2="193.0" stroke="#9a9c9f" stroke-width="1.1"/>
<line x1="146" y1="167.0" x2="220" y2="167.0" stroke="#9a9c9f" stroke-width="1.1"/>
<line x1="146" y1="193.0" x2="220" y2="193.0" stroke="#9a9c9f" stroke-width="1.1"/>
<text x="183.0" y="184.0" fill="#9a9c9f" font-size="10.5" text-anchor="middle">-</text>
<line x1="220" y1="167.0" x2="220" y2="193.0" stroke="#9a9c9f" stroke-width="1.1"/>
<line x1="294" y1="167.0" x2="294" y2="193.0" stroke="#9a9c9f" stroke-width="1.1"/>
<line x1="220" y1="167.0" x2="294" y2="167.0" stroke="#9a9c9f" stroke-width="1.1"/>
<line x1="220" y1="193.0" x2="294" y2="193.0" stroke="#9a9c9f" stroke-width="1.1"/>
<text x="257.0" y="184.0" fill="#9a9c9f" font-size="10.5" text-anchor="middle">-</text>
<line x1="294" y1="167.0" x2="294" y2="193.0" stroke="#9a9c9f" stroke-width="1.1"/>
<line x1="368" y1="167.0" x2="368" y2="193.0" stroke="#9a9c9f" stroke-width="1.1"/>
<line x1="294" y1="167.0" x2="368" y2="167.0" stroke="#9a9c9f" stroke-width="1.1"/>
<line x1="294" y1="193.0" x2="368" y2="193.0" stroke="#9a9c9f" stroke-width="1.1"/>
<text x="331.0" y="184.0" fill="#eae8e2" font-size="10.5" text-anchor="middle">addi x1</text>
<line x1="368" y1="167.0" x2="368" y2="193.0" stroke="#9a9c9f" stroke-width="1.1"/>
<line x1="442" y1="167.0" x2="442" y2="193.0" stroke="#9a9c9f" stroke-width="1.1"/>
<line x1="368" y1="167.0" x2="442" y2="167.0" stroke="#9a9c9f" stroke-width="1.1"/>
<line x1="368" y1="193.0" x2="442" y2="193.0" stroke="#9a9c9f" stroke-width="1.1"/>
<text x="405.0" y="184.0" fill="#eae8e2" font-size="10.5" text-anchor="middle">sd</text>
<line x1="442" y1="167.0" x2="442" y2="193.0" stroke="#9a9c9f" stroke-width="1.1"/>
<line x1="516" y1="167.0" x2="516" y2="193.0" stroke="#9a9c9f" stroke-width="1.1"/>
<line x1="442" y1="167.0" x2="516" y2="167.0" stroke="#9a9c9f" stroke-width="1.1"/>
<line x1="442" y1="193.0" x2="516" y2="193.0" stroke="#9a9c9f" stroke-width="1.1"/>
<text x="479.0" y="184.0" fill="#eae8e2" font-size="10.5" text-anchor="middle">ld</text>
<line x1="516" y1="167.0" x2="516" y2="193.0" stroke="#9a9c9f" stroke-width="1.1"/>
<line x1="590" y1="167.0" x2="590" y2="193.0" stroke="#9a9c9f" stroke-width="1.1"/>
<line x1="516" y1="167.0" x2="590" y2="167.0" stroke="#9a9c9f" stroke-width="1.1"/>
<line x1="516" y1="193.0" x2="590" y2="193.0" stroke="#9a9c9f" stroke-width="1.1"/>
<text x="553.0" y="184.0" fill="#9a9c9f" font-size="10.5" text-anchor="middle">bubble</text>
<line x1="590" y1="167.0" x2="590" y2="193.0" stroke="#9a9c9f" stroke-width="1.1"/>
<line x1="664" y1="167.0" x2="664" y2="193.0" stroke="#9a9c9f" stroke-width="1.1"/>
<line x1="590" y1="167.0" x2="664" y2="167.0" stroke="#9a9c9f" stroke-width="1.1"/>
<line x1="590" y1="193.0" x2="664" y2="193.0" stroke="#9a9c9f" stroke-width="1.1"/>
<text x="627.0" y="184.0" fill="#eae8e2" font-size="10.5" text-anchor="middle">add</text>
<line x1="664" y1="167.0" x2="664" y2="193.0" stroke="#9a9c9f" stroke-width="1.1"/>
<line x1="738" y1="167.0" x2="738" y2="193.0" stroke="#9a9c9f" stroke-width="1.1"/>
<line x1="664" y1="167.0" x2="738" y2="167.0" stroke="#9a9c9f" stroke-width="1.1"/>
<line x1="664" y1="193.0" x2="738" y2="193.0" stroke="#9a9c9f" stroke-width="1.1"/>
<text x="701.0" y="184.0" fill="#eae8e2" font-size="10.5" text-anchor="middle">addi x4</text>
<path d="M146 232.0 H220 H294 H368 H442 V210.4 H516 V232.0 H590 H664 H738" fill="none" stroke="#9a9c9f" stroke-width="1.6"/>
<path d="M146 272.0 H220 H294 H368 H442 V250.4 H516 V272.0 H590 H664 H738" fill="none" stroke="#f97316" stroke-width="1.6"/>
<path d="M146 312.0 H220 H294 H368 H442 V290.4 H516 V312.0 H590 H664 H738" fill="none" stroke="#f97316" stroke-width="1.6"/>
<line x1="146" y1="327.0" x2="146" y2="353.0" stroke="#9a9c9f" stroke-width="1.1"/>
<line x1="220" y1="327.0" x2="220" y2="353.0" stroke="#9a9c9f" stroke-width="1.1"/>
<line x1="146" y1="327.0" x2="220" y2="327.0" stroke="#9a9c9f" stroke-width="1.1"/>
<line x1="146" y1="353.0" x2="220" y2="353.0" stroke="#9a9c9f" stroke-width="1.1"/>
<text x="183.0" y="344.0" fill="#eae8e2" font-size="11" text-anchor="middle">00</text>
<line x1="220" y1="327.0" x2="220" y2="353.0" stroke="#9a9c9f" stroke-width="1.1"/>
<line x1="294" y1="327.0" x2="294" y2="353.0" stroke="#9a9c9f" stroke-width="1.1"/>
<line x1="220" y1="327.0" x2="294" y2="327.0" stroke="#9a9c9f" stroke-width="1.1"/>
<line x1="220" y1="353.0" x2="294" y2="353.0" stroke="#9a9c9f" stroke-width="1.1"/>
<text x="257.0" y="344.0" fill="#eae8e2" font-size="11" text-anchor="middle">00</text>
<line x1="294" y1="327.0" x2="294" y2="353.0" stroke="#9a9c9f" stroke-width="1.1"/>
<line x1="368" y1="327.0" x2="368" y2="353.0" stroke="#9a9c9f" stroke-width="1.1"/>
<line x1="294" y1="327.0" x2="368" y2="327.0" stroke="#9a9c9f" stroke-width="1.1"/>
<line x1="294" y1="353.0" x2="368" y2="353.0" stroke="#9a9c9f" stroke-width="1.1"/>
<text x="331.0" y="344.0" fill="#eae8e2" font-size="11" text-anchor="middle">00</text>
<line x1="368" y1="327.0" x2="368" y2="353.0" stroke="#9a9c9f" stroke-width="1.1"/>
<line x1="442" y1="327.0" x2="442" y2="353.0" stroke="#9a9c9f" stroke-width="1.1"/>
<line x1="368" y1="327.0" x2="442" y2="327.0" stroke="#9a9c9f" stroke-width="1.1"/>
<line x1="368" y1="353.0" x2="442" y2="353.0" stroke="#9a9c9f" stroke-width="1.1"/>
<text x="405.0" y="344.0" fill="#eae8e2" font-size="11" text-anchor="middle">00</text>
<line x1="442" y1="327.0" x2="442" y2="353.0" stroke="#9a9c9f" stroke-width="1.1"/>
<line x1="516" y1="327.0" x2="516" y2="353.0" stroke="#9a9c9f" stroke-width="1.1"/>
<line x1="442" y1="327.0" x2="516" y2="327.0" stroke="#9a9c9f" stroke-width="1.1"/>
<line x1="442" y1="353.0" x2="516" y2="353.0" stroke="#9a9c9f" stroke-width="1.1"/>
<text x="479.0" y="344.0" fill="#eae8e2" font-size="11" text-anchor="middle">00</text>
<line x1="516" y1="327.0" x2="516" y2="353.0" stroke="#9a9c9f" stroke-width="1.1"/>
<line x1="590" y1="327.0" x2="590" y2="353.0" stroke="#9a9c9f" stroke-width="1.1"/>
<line x1="516" y1="327.0" x2="590" y2="327.0" stroke="#9a9c9f" stroke-width="1.1"/>
<line x1="516" y1="353.0" x2="590" y2="353.0" stroke="#9a9c9f" stroke-width="1.1"/>
<text x="553.0" y="344.0" fill="#eae8e2" font-size="11" text-anchor="middle">00</text>
<line x1="590" y1="327.0" x2="590" y2="353.0" stroke="#9a9c9f" stroke-width="1.1"/>
<line x1="664" y1="327.0" x2="664" y2="353.0" stroke="#9a9c9f" stroke-width="1.1"/>
<line x1="590" y1="327.0" x2="664" y2="327.0" stroke="#9a9c9f" stroke-width="1.1"/>
<line x1="590" y1="353.0" x2="664" y2="353.0" stroke="#9a9c9f" stroke-width="1.1"/>
<text x="627.0" y="344.0" fill="#f97316" font-size="11" text-anchor="middle">01</text>
<line x1="664" y1="327.0" x2="664" y2="353.0" stroke="#9a9c9f" stroke-width="1.1"/>
<line x1="738" y1="327.0" x2="738" y2="353.0" stroke="#9a9c9f" stroke-width="1.1"/>
<line x1="664" y1="327.0" x2="738" y2="327.0" stroke="#9a9c9f" stroke-width="1.1"/>
<line x1="664" y1="353.0" x2="738" y2="353.0" stroke="#9a9c9f" stroke-width="1.1"/>
<text x="701.0" y="344.0" fill="#eae8e2" font-size="11" text-anchor="middle">00</text>
<line x1="146" y1="367.0" x2="146" y2="393.0" stroke="#9a9c9f" stroke-width="1.1"/>
<line x1="220" y1="367.0" x2="220" y2="393.0" stroke="#9a9c9f" stroke-width="1.1"/>
<line x1="146" y1="367.0" x2="220" y2="367.0" stroke="#9a9c9f" stroke-width="1.1"/>
<line x1="146" y1="393.0" x2="220" y2="393.0" stroke="#9a9c9f" stroke-width="1.1"/>
<text x="183.0" y="384.0" fill="#eae8e2" font-size="11" text-anchor="middle">00</text>
<line x1="220" y1="367.0" x2="220" y2="393.0" stroke="#9a9c9f" stroke-width="1.1"/>
<line x1="294" y1="367.0" x2="294" y2="393.0" stroke="#9a9c9f" stroke-width="1.1"/>
<line x1="220" y1="367.0" x2="294" y2="367.0" stroke="#9a9c9f" stroke-width="1.1"/>
<line x1="220" y1="393.0" x2="294" y2="393.0" stroke="#9a9c9f" stroke-width="1.1"/>
<text x="257.0" y="384.0" fill="#eae8e2" font-size="11" text-anchor="middle">00</text>
<line x1="294" y1="367.0" x2="294" y2="393.0" stroke="#9a9c9f" stroke-width="1.1"/>
<line x1="368" y1="367.0" x2="368" y2="393.0" stroke="#9a9c9f" stroke-width="1.1"/>
<line x1="294" y1="367.0" x2="368" y2="367.0" stroke="#9a9c9f" stroke-width="1.1"/>
<line x1="294" y1="393.0" x2="368" y2="393.0" stroke="#9a9c9f" stroke-width="1.1"/>
<text x="331.0" y="384.0" fill="#eae8e2" font-size="11" text-anchor="middle">00</text>
<line x1="368" y1="367.0" x2="368" y2="393.0" stroke="#9a9c9f" stroke-width="1.1"/>
<line x1="442" y1="367.0" x2="442" y2="393.0" stroke="#9a9c9f" stroke-width="1.1"/>
<line x1="368" y1="367.0" x2="442" y2="367.0" stroke="#9a9c9f" stroke-width="1.1"/>
<line x1="368" y1="393.0" x2="442" y2="393.0" stroke="#9a9c9f" stroke-width="1.1"/>
<text x="405.0" y="384.0" fill="#f97316" font-size="11" text-anchor="middle">01</text>
<line x1="442" y1="367.0" x2="442" y2="393.0" stroke="#9a9c9f" stroke-width="1.1"/>
<line x1="516" y1="367.0" x2="516" y2="393.0" stroke="#9a9c9f" stroke-width="1.1"/>
<line x1="442" y1="367.0" x2="516" y2="367.0" stroke="#9a9c9f" stroke-width="1.1"/>
<line x1="442" y1="393.0" x2="516" y2="393.0" stroke="#9a9c9f" stroke-width="1.1"/>
<text x="479.0" y="384.0" fill="#eae8e2" font-size="11" text-anchor="middle">00</text>
<line x1="516" y1="367.0" x2="516" y2="393.0" stroke="#9a9c9f" stroke-width="1.1"/>
<line x1="590" y1="367.0" x2="590" y2="393.0" stroke="#9a9c9f" stroke-width="1.1"/>
<line x1="516" y1="367.0" x2="590" y2="367.0" stroke="#9a9c9f" stroke-width="1.1"/>
<line x1="516" y1="393.0" x2="590" y2="393.0" stroke="#9a9c9f" stroke-width="1.1"/>
<text x="553.0" y="384.0" fill="#eae8e2" font-size="11" text-anchor="middle">00</text>
<line x1="590" y1="367.0" x2="590" y2="393.0" stroke="#9a9c9f" stroke-width="1.1"/>
<line x1="664" y1="367.0" x2="664" y2="393.0" stroke="#9a9c9f" stroke-width="1.1"/>
<line x1="590" y1="367.0" x2="664" y2="367.0" stroke="#9a9c9f" stroke-width="1.1"/>
<line x1="590" y1="393.0" x2="664" y2="393.0" stroke="#9a9c9f" stroke-width="1.1"/>
<text x="627.0" y="384.0" fill="#eae8e2" font-size="11" text-anchor="middle">00</text>
<line x1="664" y1="367.0" x2="664" y2="393.0" stroke="#9a9c9f" stroke-width="1.1"/>
<line x1="738" y1="367.0" x2="738" y2="393.0" stroke="#9a9c9f" stroke-width="1.1"/>
<line x1="664" y1="367.0" x2="738" y2="367.0" stroke="#9a9c9f" stroke-width="1.1"/>
<line x1="664" y1="393.0" x2="738" y2="393.0" stroke="#9a9c9f" stroke-width="1.1"/>
<text x="701.0" y="384.0" fill="#eae8e2" font-size="11" text-anchor="middle">00</text>
<text x="405.0" y="418" fill="#2dd4bf" font-size="10" text-anchor="middle">sd forwards x1</text>
<text x="479.0" y="418" fill="#f97316" font-size="10" text-anchor="middle">load-use stall</text>
<text x="627.0" y="418" fill="#2dd4bf" font-size="10" text-anchor="middle">add forwards x2</text>
<text x="16" y="436" fill="#9a9c9f" font-size="10">forward_a/forward_b: 00=regfile 01=MEM/WB 10=EX/MEM</text>
</svg>